<svg xmlns="http://www.w3.org/2000/svg" width="200" height="41.262" viewBox="0 20 200 41.262">
<style type="text/css">
	.st0{fill:#177DFD;}
</style>
<g>
	<path d="M66.98,42.43h-9.79l-2.05,5.88h-4.56l9.55-25.27h3.94l9.56,25.27h-4.58L66.98,42.43z M58.42,38.89h7.32l-3.66-10.48
		L58.42,38.89z"/>
	<path d="M102.29,45.03c-0.91,1.19-2.18,2.09-3.8,2.71c-1.62,0.61-3.46,0.92-5.52,0.92c-2.12,0-3.99-0.48-5.62-1.44
		c-1.63-0.96-2.89-2.33-3.77-4.12c-0.89-1.79-1.35-3.87-1.38-6.26v-1.98c0-3.82,0.91-6.8,2.74-8.95c1.83-2.15,4.38-3.22,7.65-3.22
		c2.81,0,5.05,0.7,6.7,2.09c1.65,1.39,2.65,3.4,2.99,6.01h-4.3c-0.49-3.04-2.25-4.56-5.29-4.56c-1.97,0-3.46,0.71-4.49,2.12
		c-1.02,1.42-1.55,3.49-1.59,6.23v1.94c0,2.73,0.58,4.85,1.73,6.36c1.15,1.51,2.75,2.26,4.8,2.26c2.24,0,3.84-0.51,4.79-1.53v-4.95
		h-5.21v-3.33h9.58V45.03z"/>
	<path d="M134.07,36.34c0,2.48-0.43,4.65-1.28,6.52c-0.86,1.87-2.08,3.3-3.67,4.3c-1.59,1-3.42,1.5-5.49,1.5
		c-2.05,0-3.87-0.5-5.48-1.5c-1.6-1-2.84-2.43-3.71-4.28c-0.87-1.85-1.32-3.99-1.33-6.4v-1.42c0-2.46,0.44-4.64,1.31-6.53
		s2.11-3.33,3.7-4.33c1.59-1,3.42-1.5,5.48-1.5c2.06,0,3.88,0.49,5.48,1.48c1.59,0.99,2.82,2.41,3.69,4.27
		c0.87,1.86,1.31,4.02,1.32,6.48V36.34z M129.68,35.02c0-2.8-0.53-4.95-1.59-6.44c-1.06-1.49-2.56-2.24-4.5-2.24
		c-1.9,0-3.38,0.74-4.45,2.23s-1.62,3.59-1.64,6.31v1.46c0,2.78,0.54,4.92,1.62,6.44c1.08,1.52,2.58,2.27,4.5,2.27
		c1.94,0,3.44-0.74,4.49-2.22c1.05-1.48,1.57-3.64,1.57-6.49V35.02z"/>
	<path d="M154.52,38.59h-4.89v9.72h-4.39V23.04h8.89c2.92,0,5.17,0.65,6.75,1.96s2.38,3.2,2.38,5.68c0,1.69-0.41,3.11-1.22,4.25
		c-0.82,1.14-1.95,2.02-3.41,2.63l5.68,10.52v0.23h-4.7L154.52,38.59z M149.63,35.05h4.51c1.48,0,2.64-0.37,3.47-1.12
		c0.83-0.75,1.25-1.77,1.25-3.06c0-1.35-0.38-2.4-1.15-3.14c-0.77-0.74-1.92-1.12-3.45-1.15h-4.63V35.05z"/>
	<path d="M188.35,42.43h-9.79l-2.05,5.88h-4.56l9.55-25.27h3.94L195,48.31h-4.58L188.35,42.43z M179.8,38.89h7.32l-3.66-10.48
		L179.8,38.89z"/>
</g>
<g>
	<g>
		<path class="st0" d="M27.02,59.29c-3.27,0.03-5.66-0.73-7.16-2.29c-1.51-1.56-2.27-3.24-2.29-5.06c-0.01-0.66,0.12-1.22,0.38-1.68
			c0.26-0.46,0.61-0.82,1.06-1.08c0.45-0.27,1-0.4,1.66-0.41s1.22,0.12,1.67,0.38s0.81,0.61,1.08,1.06c0.26,0.45,0.4,1.01,0.41,1.67
			c0.01,0.8-0.18,1.46-0.56,1.97c-0.38,0.51-0.83,0.85-1.35,1.01c0.46,0.62,1.17,1.06,2.15,1.32c0.98,0.27,1.95,0.4,2.92,0.39
			c1.36-0.01,2.58-0.39,3.67-1.13s1.89-1.83,2.39-3.27c0.51-1.44,0.75-3.06,0.74-4.88c-0.02-1.97-0.32-3.65-0.91-5.05
			c-0.57-1.41-1.4-2.45-2.51-3.12c-1.1-0.67-2.29-1-3.55-0.99c-0.83,0.01-1.87,0.37-3.12,1.08l-2.28,1.17l-0.01-1.15l10.2-13.92
			l-14.28,0.13l0.13,14.35c0.01,1.19,0.28,2.16,0.81,2.93c0.53,0.76,1.33,1.14,2.41,1.13c0.83-0.01,1.63-0.29,2.39-0.86
			c0.76-0.57,1.41-1.25,1.96-2.06c0.07-0.16,0.15-0.27,0.26-0.34c0.1-0.09,0.22-0.13,0.34-0.13c0.19,0,0.42,0.09,0.68,0.28
			c0.25,0.28,0.37,0.6,0.37,0.97c-0.02,0.17-0.06,0.42-0.12,0.73c-0.58,1.33-1.39,2.35-2.42,3.06c-1.04,0.71-2.18,1.07-3.43,1.08
			c-3.09,0.03-5.24-0.56-6.43-1.77c-1.19-1.21-1.8-2.86-1.82-4.96l-0.13-14.35l-7.3,0.07L5,22.88l7.3-0.07l-0.06-6.07l-1.68-1.66
			l-0.01-1.36l4.85-0.04l1.83,0.93l0.07,8.17l18.87-0.22l1.89,1.87L26.6,36.14c0.69-0.29,1.42-0.47,2.18-0.54
			c1.25-0.01,2.66,0.38,4.23,1.17c1.59,0.77,2.81,1.84,3.68,3.21c0.86,1.35,1.42,2.66,1.68,3.91c0.27,1.25,0.41,2.37,0.42,3.35
			c0.02,2.23-0.43,4.32-1.35,6.24c-0.92,1.93-2.33,3.37-4.24,4.33C31.31,58.78,29.25,59.27,27.02,59.29z"/>
	</g>
</g>
</svg>
